<svg id="Layer_1" data-name="Layer 1" xmlns="http://www.w3.org/2000/svg" viewBox="0 0 96 96"><defs><style>.cls-1,.cls-4{fill:#fff;}.cls-1,.cls-2{stroke:#35ff6d;}.cls-1,.cls-2,.cls-4,.cls-5,.cls-6{stroke-linecap:round;stroke-linejoin:round;stroke-width:2px;}.cls-2,.cls-5{fill:none;}.cls-3,.cls-6{fill:#35ff6d;}.cls-4,.cls-5,.cls-6{stroke:#000;}</style></defs><title>Artboard 5 copy 2</title><line class="cls-1" x1="41" y1="68" x2="65" y2="68"/><path class="cls-2" d="M56.88,33.64a23.73,23.73,0,1,1,0,47.47"/><path class="cls-3" d="M61,41A6.49,6.49,0,0,0,61,28V17H56V12H50v5H45V56H61Z"/><polygon class="cls-3" points="56 76 56 68 50 68 50 76 31 76 31 85 75 85 75 76 56 76"/><line class="cls-2" x1="16" y1="59" x2="22" y2="59"/><line class="cls-2" x1="19" y1="56" x2="19" y2="62"/><line class="cls-2" x1="26" y1="45" x2="32" y2="45"/><line class="cls-2" x1="29" y1="42" x2="29" y2="48"/><line class="cls-2" x1="18" y1="30" x2="24" y2="30"/><line class="cls-2" x1="21" y1="27" x2="21" y2="33"/><line class="cls-4" x1="35" y1="66" x2="59" y2="66"/><rect class="cls-5" x="39" y="15" width="16" height="38.91"/><rect class="cls-5" x="44" y="10" width="6" height="5"/><rect class="cls-5" x="44" y="66" width="6" height="8"/><path class="cls-5" d="M50.88,31.64A23.73,23.73,0,0,1,66,73.67"/><circle class="cls-6" cx="54.5" cy="32.5" r="6.5"/><rect class="cls-5" x="25" y="74" width="44" height="7"/></svg>