<svg id="Layer_1" data-name="Layer 1" xmlns="http://www.w3.org/2000/svg" viewBox="0 0 96 96"><defs><style>.cls-1{fill:#ff224d;}.cls-2,.cls-3{fill:none;stroke-linecap:round;stroke-linejoin:round;stroke-width:2px;}.cls-2{stroke:#000;}.cls-3{stroke:#ff224d;}</style></defs><title>Artboard 5 copy 3</title><polygon class="cls-1" points="92 31 59 31 49.5 39.5 40 23 29.5 23 19 35 36 35 30 53 53 68 68 85 68 53.77 92 31"/><polygon class="cls-2" points="34 19 24 49 47 64 86 27 53 27 43.5 35.5 34 19"/><polygon class="cls-2" points="47 64 62 79 62 49.77 47 64"/><line class="cls-2" x1="33.2" y1="64.88" x2="53" y2="84.68"/><line class="cls-2" x1="32.99" y1="72.67" x2="39.32" y2="79"/><polygon class="cls-2" points="34 19 23.5 19 13 31 30 31 34 19"/><line class="cls-3" x1="63.88" y1="14.88" x2="68.12" y2="19.12"/><line class="cls-3" x1="68.12" y1="14.88" x2="63.88" y2="19.12"/><line class="cls-3" x1="78.88" y1="4.88" x2="83.12" y2="9.12"/><line class="cls-3" x1="83.12" y1="4.88" x2="78.88" y2="9.12"/><line class="cls-3" x1="49.88" y1="7.88" x2="54.12" y2="12.12"/><line class="cls-3" x1="54.12" y1="7.88" x2="49.88" y2="12.12"/></svg>