<svg id="Layer_1" data-name="Layer 1" xmlns="http://www.w3.org/2000/svg" viewBox="0 0 96 96"><defs><style>.cls-1,.cls-3{fill:none;stroke-linecap:round;stroke-linejoin:round;stroke-width:2px;}.cls-1{stroke:#35ff6d;}.cls-2{fill:#35ff6d;}.cls-3{stroke:#000;}</style></defs><title>Artboard 5 copy 5</title><path class="cls-1" d="M77,63a32.12,32.12,0,0,1-45.25,0,31.71,31.71,0,0,1,0-45"/><line class="cls-1" x1="29.22" y1="15.84" x2="80.32" y2="66.75"/><path class="cls-2" d="M72.34,22.67a25.45,25.45,0,0,0-35.85,0,25.12,25.12,0,0,0,0,35.66,25.45,25.45,0,0,0,35.85,0A25.12,25.12,0,0,0,72.34,22.67Z"/><path class="cls-2" d="M54,73a13.38,13.38,0,0,1-5-1v7H35v5H68V79H54Z"/><path class="cls-3" d="M67.34,21.67a25.12,25.12,0,0,1,0,35.66,25.45,25.45,0,0,1-35.85,0,25.12,25.12,0,0,1,0-35.66A25.45,25.45,0,0,1,67.34,21.67Z"/><path class="cls-3" d="M72,62a32.12,32.12,0,0,1-45.25,0,31.71,31.71,0,0,1,0-45"/><path class="cls-3" d="M67.34,21.67c4.38,4.36-.09,15.88-10,25.72s-21.48,14.3-25.86,9.94.09-15.88,10-25.72S63,17.31,67.34,21.67Z"/><path class="cls-3" d="M59.11,29.85C69,39.7,72.7,52,67.34,57.33S49.62,59,39.72,49.15,26.13,27,31.49,21.67,49.21,20,59.11,29.85Z"/><line class="cls-3" x1="24.22" y1="14.84" x2="75.32" y2="65.75"/><rect class="cls-3" x="30" y="78" width="33" height="5"/><polyline class="cls-3" points="49 72 49 78 44 78 44 71"/><line class="cls-3" x1="15" y1="83" x2="76" y2="83"/><line class="cls-3" x1="61" y1="87" x2="84" y2="87"/><line class="cls-1" x1="7" y1="21" x2="13" y2="21"/><line class="cls-1" x1="10" y1="18" x2="10" y2="24"/><line class="cls-1" x1="86" y1="33" x2="92" y2="33"/><line class="cls-1" x1="89" y1="30" x2="89" y2="36"/><line class="cls-1" x1="73" y1="12" x2="79" y2="12"/><line class="cls-1" x1="76" y1="9" x2="76" y2="15"/></svg>