<svg id="Layer_1" data-name="Layer 1" xmlns="http://www.w3.org/2000/svg" viewBox="0 0 96 96"><defs><style>.cls-1{fill:#00d2ff;}.cls-2,.cls-4,.cls-5{fill:none;}.cls-2,.cls-3,.cls-4{stroke:#000;}.cls-2{stroke-miterlimit:10;}.cls-2,.cls-3,.cls-4,.cls-5{stroke-width:2px;}.cls-3{fill:#fff;}.cls-3,.cls-4,.cls-5{stroke-linecap:round;stroke-linejoin:round;}.cls-5{stroke:#00d2ff;}</style></defs><title>Artboard 5</title><path class="cls-1" d="M86.7,43.31l-24-24a2,2,0,0,0-2.83,0L45.69,33.41a2,2,0,0,0,0,2.83l3,3L32.11,49.91,20.91,85.06l35.15-11.2L66.69,57.25l3,3a2,2,0,0,0,2.83,0L86.7,46.14A2,2,0,0,0,86.7,43.31ZM42.86,63.11a4,4,0,1,1,5.66,0A4,4,0,0,1,42.86,63.11Z"/><rect class="cls-2" x="42.95" y="23.54" width="38" height="24" rx="2" ry="2" transform="translate(43.27 -33.4) rotate(45)"/><line class="cls-3" x1="53.47" y1="25.64" x2="44.27" y2="34.83"/><line class="cls-3" x1="66.19" y1="10.08" x2="59.83" y2="16.44"/><line class="cls-3" x1="87.41" y1="31.29" x2="81.04" y2="37.66"/><line class="cls-3" x1="57" y1="29.17" x2="47.81" y2="38.36"/><line class="cls-3" x1="77.51" y1="34.12" x2="68.31" y2="43.31"/><line class="cls-3" x1="81.04" y1="37.66" x2="71.85" y2="46.85"/><polygon class="cls-4" points="62.45 53.01 53.47 44.02 44.48 35.04 27.86 45.67 16.66 80.82 51.82 69.63 62.45 53.01"/><circle class="cls-2" cx="41.44" cy="56.04" r="4" transform="translate(-27.49 45.72) rotate(-45)"/><line class="cls-3" x1="38.62" y1="58.87" x2="17.4" y2="80.08"/><line class="cls-3" x1="49" y1="81" x2="81" y2="81"/><line class="cls-3" x1="55" y1="85" x2="69" y2="85"/><line class="cls-5" x1="22" y1="32" x2="28" y2="32"/><line class="cls-5" x1="25" y1="29" x2="25" y2="35"/><line class="cls-5" x1="32" y1="18" x2="38" y2="18"/><line class="cls-5" x1="35" y1="15" x2="35" y2="21"/><line class="cls-5" x1="14" y1="12" x2="20" y2="12"/><line class="cls-5" x1="17" y1="9" x2="17" y2="15"/></svg>