<svg id="Layer_1" data-name="Layer 1" xmlns="http://www.w3.org/2000/svg" viewBox="0 0 96 96"><defs><style>.cls-1{fill:#35ff6d;}.cls-2,.cls-3,.cls-4{fill:none;stroke-width:2px;}.cls-2,.cls-3{stroke:#000;}.cls-2,.cls-4{stroke-linecap:round;stroke-linejoin:round;}.cls-3{stroke-miterlimit:10;}.cls-4{stroke:#35ff6d;}</style></defs><title>Artboard 6</title><path class="cls-1" d="M82.69,54.81,77,50V44A24,24,0,0,0,53,20H51A24,24,0,0,0,27,44v6l-5.69,4.81a4,4,0,0,0-1.31,3V73a4,4,0,0,0,4,4h3v1a4,4,0,0,0,4,4H73a4,4,0,0,0,4-4V77h3a4,4,0,0,0,4-4V57.77A4,4,0,0,0,82.69,54.81Z"/><path class="cls-2" d="M67,82H25a4,4,0,0,1-4-4V44A24,24,0,0,1,45,20h2A24,24,0,0,1,71,44V78A4,4,0,0,1,67,82Z"/><path class="cls-2" d="M53,52v4a2,2,0,0,0,2,2h4a2,2,0,0,0,2-2V52"/><line class="cls-2" x1="55" y1="61" x2="55" y2="58"/><line class="cls-2" x1="59" y1="61" x2="59" y2="58"/><path class="cls-2" d="M32,52v4a2,2,0,0,0,2,2h4a2,2,0,0,0,2-2V52"/><line class="cls-2" x1="34" y1="61" x2="34" y2="58"/><line class="cls-2" x1="38" y1="61" x2="38" y2="58"/><path class="cls-2" d="M67,41v4a6,6,0,0,1-6,6H32a6,6,0,0,1-6-6V41"/><line class="cls-2" x1="29" y1="77" x2="63" y2="77"/><circle class="cls-3" cx="46" cy="39" r="4" transform="translate(-14.1 43.95) rotate(-45)"/><path class="cls-3" d="M57.92,22.63a12,12,0,0,0-23.83,0"/><path class="cls-3" d="M71,50l5.69,4.81a4,4,0,0,1,1.31,3V73a4,4,0,0,1-4,4H71"/><path class="cls-3" d="M21,50l-5.69,4.81a4,4,0,0,0-1.31,3V73a4,4,0,0,0,4,4h3"/><circle class="cls-4" cx="83" cy="32" r="3"/><circle class="cls-4" cx="77" cy="22" r="3"/><circle class="cls-4" cx="87" cy="14" r="3"/></svg>