<svg id="Layer_1" data-name="Layer 1" xmlns="http://www.w3.org/2000/svg" viewBox="0 0 96 96"><defs><style>.cls-1{fill:#ff224d;}.cls-2,.cls-3,.cls-5{fill:none;}.cls-2,.cls-3,.cls-4{stroke:#000;}.cls-2,.cls-4,.cls-5{stroke-linecap:round;stroke-linejoin:round;}.cls-2,.cls-3,.cls-4,.cls-5{stroke-width:2px;}.cls-3{stroke-miterlimit:10;}.cls-4{fill:#fff;}.cls-5{stroke:#ff224d;}</style></defs><title>Artboard 7</title><polygon class="cls-1" points="79.02 31.25 67.11 50.87 76.53 71.79 54.19 66.53 37.2 81.95 35.29 59.09 15.38 47.69 36.54 38.81 41.22 16.35 56.2 33.73 79.02 31.25"/><polygon class="cls-2" points="74.02 29.25 62.11 48.87 71.53 69.79 49.19 64.53 32.2 79.95 30.29 57.09 10.38 45.69 31.54 36.81 36.22 14.35 51.2 31.73 74.02 29.25"/><polygon class="cls-2" points="58.99 38.81 53.19 48.64 58.04 59.28 46.86 56.47 38.5 64.13 37.39 52.57 27.38 46.67 37.87 42.34 40.04 31.02 47.63 39.91 58.99 38.81"/><circle class="cls-3" cx="44.63" cy="47.67" r="3.94" transform="translate(-11.57 80.91) rotate(-77.49)"/><line class="cls-4" x1="45" y1="80" x2="65" y2="80"/><line class="cls-4" x1="50" y1="84" x2="56" y2="84"/><line class="cls-5" x1="52.88" y1="12.88" x2="57.12" y2="17.12"/><line class="cls-5" x1="57.12" y1="12.88" x2="52.88" y2="17.12"/><line class="cls-5" x1="72.88" y1="6.88" x2="77.12" y2="11.12"/><line class="cls-5" x1="77.12" y1="6.88" x2="72.88" y2="11.12"/><line class="cls-5" x1="62.88" y1="18.88" x2="67.12" y2="23.12"/><line class="cls-5" x1="67.12" y1="18.88" x2="62.88" y2="23.12"/></svg>