<svg id="Layer_1" data-name="Layer 1" xmlns="http://www.w3.org/2000/svg" viewBox="0 0 96 96"><defs><style>.cls-1{fill:#cfd2d7;}.cls-2,.cls-3,.cls-4{fill:none;stroke-width:2px;}.cls-2{stroke:#cfd2d7;}.cls-2,.cls-3{stroke-linecap:round;stroke-linejoin:round;}.cls-3,.cls-4{stroke:#000;}.cls-4{stroke-miterlimit:10;}</style></defs><title>Artboard 8</title><polygon class="cls-1" points="94 43.73 58 22.45 22 43.73 35 52 35 69 58 83 81 69 81 52 94 43.73"/><circle class="cls-2" cx="21" cy="23" r="3"/><circle class="cls-2" cx="16" cy="13" r="3"/><circle class="cls-2" cx="34" cy="18" r="3"/><polygon class="cls-3" points="51 61 15 39.73 51 18.45 87 39.73 51 61"/><polyline class="cls-3" points="68.16 34 51 24.02 33.84 34"/><polyline class="cls-3" points="34.79 46 51 55.43 67.21 46"/><polyline class="cls-3" points="74 48 74 65 51 79 28 65 28 48"/><line class="cls-3" x1="51" y1="61" x2="51" y2="79"/><line class="cls-3" x1="15" y1="59" x2="15" y2="40"/><line class="cls-3" x1="19" y1="53" x2="19" y2="42"/><circle class="cls-4" cx="14.94" cy="62.94" r="3.94" transform="translate(-49.74 63.89) rotate(-77.49)"/></svg>