<svg id="Layer_1" data-name="Layer 1" xmlns="http://www.w3.org/2000/svg" viewBox="0 0 96 96"><defs><style>.cls-1{fill:#fff801;}.cls-2,.cls-3,.cls-4{fill:none;stroke-width:2px;}.cls-2{stroke:#fff801;}.cls-2,.cls-3{stroke-linecap:round;stroke-linejoin:round;}.cls-3,.cls-4{stroke:#000;}.cls-4{stroke-miterlimit:10;}</style></defs><title>Artboard 5 copy 4</title><polygon class="cls-1" points="92 43.73 56 22.45 20 43.73 33 52 33 69 56 83 79 69 79 52 92 43.73"/><circle class="cls-2" cx="19" cy="23" r="3"/><circle class="cls-2" cx="14" cy="13" r="3"/><circle class="cls-2" cx="32" cy="18" r="3"/><polygon class="cls-3" points="49 61 13 39.73 49 18.45 85 39.73 49 61"/><polyline class="cls-3" points="66.16 34 49 24.02 31.84 34"/><polyline class="cls-3" points="32.79 46 49 55.43 65.21 46"/><polyline class="cls-3" points="72 48 72 65 49 79 26 65 26 48"/><line class="cls-3" x1="49" y1="61" x2="49" y2="79"/><line class="cls-3" x1="13" y1="59" x2="13" y2="40"/><line class="cls-3" x1="17" y1="53" x2="17" y2="42"/><circle class="cls-4" cx="12.94" cy="62.94" r="3.94" transform="translate(-51.31 61.94) rotate(-77.49)"/></svg>