<?xml version="1.0" encoding="UTF-8" standalone="no"?>
<svg xmlns="http://www.w3.org/2000/svg" width="20" height="17" viewBox="0 0 20 17">
  <g fill="none" fill-rule="evenodd">
    <path fill="#3F4D60" d="M20.05 1.916c-.75.334-1.545.553-2.36.65.855-.514 1.495-1.32 1.8-2.27-.807.48-1.69.818-2.61 1-1.272-1.354-3.294-1.686-4.933-.81-1.638.875-2.486 2.74-2.067 4.55-3.3-.165-6.376-1.724-8.46-4.29C.33 2.622.887 5.02 2.69 6.226c-.652-.02-1.29-.194-1.86-.51v.05c.013 1.944 1.386 3.613 3.29 4-.603.164-1.236.188-1.85.07.538 1.67 2.076 2.815 3.83 2.85-1.454 1.143-3.25 1.763-5.1 1.76-.334 0-.668-.02-1-.06 3.594 2.32 8.17 2.49 11.923.438 3.755-2.05 6.087-5.99 6.077-10.268v-.53c.803-.576 1.497-1.29 2.05-2.11z"/>
  </g>
</svg>