<?xml version="1.0" encoding="UTF-8" standalone="no"?>
<svg xmlns="http://www.w3.org/2000/svg" width="20" height="20" viewBox="0 0 20 20">
  <g fill="none" fill-rule="evenodd">
    <path fill="#3F4D60" d="M18.9 0H1.1C.492 0 0 .492 0 1.1v17.79c0 .292.116.572.322.778.206.206.486.322.778.322h9.58v-7.75H8.07v-3h2.61V7c-.11-1.07.26-2.132 1.008-2.904.75-.77 1.8-1.172 2.872-1.096.778-.002 1.556.038 2.33.12v2.7h-1.6c-.414-.094-.847.03-1.15.327-.303.297-.435.727-.35 1.143v1.93h3l-.39 3h-2.6V20h5.1c.292 0 .572-.116.778-.322.206-.206.322-.486.322-.778V1.1c0-.292-.116-.572-.322-.778C19.472.116 19.192 0 18.9 0z"/>
  </g>
</svg>