<?xml version="1.0" encoding="UTF-8" standalone="no"?>
<svg xmlns="http://www.w3.org/2000/svg" width="40" height="40" viewBox="0 0 40 40">
  <path fill="#91959C" fill-rule="evenodd" d="M21.64 16.346c0 .79-.02 1.58.01 2.367.013.35.08.713.21 1.034.222.545.586.647 1.015.253.455-.42.873-.894 1.233-1.397 1.066-1.485 1.903-3.1 2.565-4.803.234-.602.44-.732 1.095-.736 1.474-.01 2.95-.032 4.423-.04.27 0 .54.02.8.073.38.077.58.31.52.687-.07.395-.19.794-.363 1.153-.626 1.276-1.497 2.393-2.347 3.522-.548.72-1.09 1.45-1.625 2.19-.11.15-.185.33-.252.51-.12.31-.094.63.125.88.404.46.823.91 1.266 1.333.91.87 1.826 1.735 2.557 2.767.22.31.42.64.578.986.236.51.045.935-.46 1.177-.51.246-1.053.19-1.586.2-1.06.03-2.116.048-3.174.055-.766.003-1.436-.3-1.977-.81-.64-.606-1.216-1.28-1.83-1.916-.282-.29-.57-.59-.892-.83-.57-.427-1.102-.278-1.425.36-.276.547-.357 1.137-.39 1.74-.01.13-.006.26-.016.39-.05.616-.37.98-.992.985-1.16.012-2.326.09-3.476-.166-2.208-.49-4.037-1.62-5.554-3.273-1.348-1.474-2.435-3.133-3.445-4.846-1.13-1.91-2.13-3.89-3.04-5.913-.38-.847-.15-1.23.784-1.25.76-.017 1.51-.014 2.27-.018.53-.004 1.06 0 1.587-.008.618-.01 1.026.25 1.257.82.72 1.75 1.6 3.42 2.684 4.974.268.382.587.73.897 1.08.107.12.253.212.396.29.314.165.635.08.796-.238.107-.215.195-.45.235-.685.244-1.44.222-2.884.013-4.324-.123-.84-.568-1.26-1.4-1.424-.256-.05-.296-.133-.145-.344.296-.414.718-.64 1.204-.704.614-.083 1.24-.15 1.86-.16.795-.016 1.593.02 2.39.06.282.012.564.09.84.162.44.116.756.404.795.86.06.68.06 1.365.068 2.047.004.303-.023.61-.037.91h-.022"/>
</svg>