<?xml version="1.0" encoding="UTF-8" standalone="no"?>
<svg xmlns="http://www.w3.org/2000/svg" width="40" height="40" viewBox="0 0 40 40">
  <g fill="none" fill-rule="evenodd">
    <path fill="#91959C" d="M26 7.747H14c-3.314 0-6 2.686-6 6v12c0 3.314 2.686 6 6 6h12c3.314 0 6-2.686 6-6v-12c0-3.314-2.686-6-6-6m0 2c2.206 0 4 1.794 4 4v12c0 2.206-1.794 4-4 4H14c-2.206 0-4-1.794-4-4v-12c0-2.206 1.794-4 4-4h12"/>
    <path fill="#91959C" d="M20 13.747c-3.314 0-6 2.686-6 6s2.686 6 6 6 6-2.686 6-6-2.686-6-6-6m0 2c2.206 0 4 1.794 4 4s-1.794 4-4 4-4-1.794-4-4 1.794-4 4-4"/>
    <path fill="#91959C" d="M28 13.247c0 .828-.672 1.5-1.5 1.5s-1.5-.672-1.5-1.5.672-1.5 1.5-1.5 1.5.672 1.5 1.5"/>
  </g>
</svg>