<?xml version="1.0" encoding="UTF-8" standalone="no"?>
<svg xmlns="http://www.w3.org/2000/svg" width="22" height="16" viewBox="0 0 22 16">
  <g fill="none" fill-rule="evenodd">
    <path fill="#3F4D60" d="M20.89 1.15c-.583-.587-1.373-.92-2.2-.93C15.61 0 10.99 0 10.99 0s-6.92.164-7.7.22c-.827.01-1.617.343-2.2.93-.467.643-.767 1.392-.87 2.18C.083 4.512.01 5.7 0 6.89v1.67c.01 1.19.083 2.378.22 3.56.103.788.403 1.537.87 2.18.67.595 1.533.93 2.43.94 1.76.17 7.48.22 7.48.22s4.62 0 7.7-.23c.827-.01 1.617-.343 2.2-.93.467-.643.767-1.392.87-2.18.137-1.182.21-2.37.22-3.56V6.89c-.013-1.19-.09-2.378-.23-3.56-.103-.788-.403-1.537-.87-2.18zM8.98 10.58V4.4l5.94 3.1-5.94 3.08z"/>
  </g>
</svg>