<?xml version="1.0" encoding="UTF-8" standalone="no"?>
<svg xmlns="http://www.w3.org/2000/svg" width="385" height="50" viewBox="0 0 385 50">
  <g fill="none" fill-rule="evenodd" stroke="#FFF" stroke-width="2" stroke-linecap="round">
    <path d="M51.37 1L1.946 48.735"/>
    <path d="M69.888 1L20.46 48.735"/>
    <path d="M88.404 1L38.977 48.735"/>
    <path d="M106.92 1L57.493 48.735"/>
    <path d="M125.436 1L76.01 48.735"/>
    <path d="M143.952 1L94.526 48.735"/>
    <path d="M162.47 1l-49.43 47.735"/>
    <path d="M180.985 1l-49.427 47.735"/>
    <path d="M199.5 1l-49.426 47.735"/>
    <path d="M218.017 1L168.59 48.735"/>
    <path d="M236.533 1l-49.426 47.735"/>
    <path d="M255.05 1l-49.427 47.735"/>
    <path d="M273.566 1L224.14 48.735"/>
    <path d="M292.082 1l-49.427 47.735"/>
    <path d="M310.598 1l-49.426 47.735"/>
    <path d="M329.115 1l-49.427 47.735"/>
    <path d="M347.63 1l-49.426 47.735"/>
    <path d="M366.147 1L316.72 48.735"/>
    <path d="M384.663 1l-49.427 47.735"/>
    <path d="M403.18 1l-49.427 47.735"/>
    <path d="M421.696 1L372.27 48.735"/>
  </g>
</svg>