<?xml version="1.0" encoding="UTF-8" standalone="no"?>
<svg width="158px" height="178px" viewBox="0 0 158 178" version="1.1" xmlns="http://www.w3.org/2000/svg" xmlns:xlink="http://www.w3.org/1999/xlink">
    <!-- Generator: sketchtool 40.1 (33804) - http://www.bohemiancoding.com/sketch -->
    <title>F6419869-D7C3-42A4-B8D7-E79135EE787E</title>
    <desc>Created with sketchtool.</desc>
    <defs>
        <polygon id="path-1" points="102.03314 0.0742623656 0.0234315534 0.0742623656 0.0234315534 123.525722 102.03314 123.525722 102.03314 0.0742623656"></polygon>
    </defs>
    <g id="Periscope" stroke="none" stroke-width="1" fill="none" fill-rule="evenodd">
        <g id="Periscope/01a_lab" transform="translate(-584.000000, -44.000000)">
            <g id="Page-1" transform="translate(584.000000, 44.000000)">
                <path d="M44.3038136,107.565438 C62.7115806,124.53592 84.5708039,124.918716 101.700382,116.242268 C113.225178,110.404251 119.310095,101.158969 122.058605,95.7339888 C119.555916,95.145249 117.285624,93.5532017 114.646027,93.5532017 C111.408945,93.5532017 108.72678,95.9498856 105.489697,95.9498856 C102.252231,95.9498856 99.5704495,93.5532017 96.3329835,93.5532017 C93.0955175,93.5532017 90.4137359,95.9498856 87.1762699,95.9498856 C83.9391874,95.9498856 81.2570223,93.5532017 78.0195563,93.5532017 C74.7824738,93.5532017 72.1003087,95.9498856 68.8632262,95.9498856 C65.6257602,95.9498856 62.9435951,93.5532017 59.7065126,93.5532017 C56.4690466,93.5532017 53.787265,95.9498856 50.549799,95.9498856 C47.312333,95.9498856 44.6305515,93.5532017 41.3930854,93.5532017 C39.0744738,93.5532017 37.0396485,94.7796791 34.8824883,95.4775157 C37.0200903,99.5083544 40.0454835,103.639103 44.3038136,107.565438" id="Fill-1" fill="#00D3FF"></path>
                <path d="M33.1951864,84.2104602 C36.4326524,84.2104602 39.114434,81.8137763 42.3519,81.8137763 C45.589366,81.8137763 48.2711476,84.2104602 51.5086136,84.2104602 C53.1189097,84.2104602 54.5919146,83.6171269 56.0645359,83.021114 L56.0645359,28.9967742 L37.336934,44.1172043 L30.5298951,66.5107527 C27.7495553,87.5645161 33.1951864,84.2104602 33.1951864,84.2104602" id="Fill-3" fill="#FFF901"></path>
                <path d="M112.605488,61.3587819 L121.897575,88.9039948 L124.710129,88.4875131 C127.554129,79.0948551 127.731303,66.7699819 125.845274,61.3587819 L112.605488,61.3587819 Z" id="Fill-5" fill="#44FF74"></path>
                <path d="M69.246568,84.4652873 C72.484034,84.4652873 75.1658155,82.0686034 78.4032816,82.0686034 C81.6403641,82.0686034 84.3225291,84.4652873 87.5596117,84.4652873 C90.7970777,84.4652873 93.4788592,82.0686034 96.7163252,82.0686034 C98.3247039,82.0686034 99.7957913,82.6600228 101.266112,83.2552701 L101.266112,46.5103282 L106.664573,46.5103282 C109.666189,46.5103282 112.09985,44.0811067 112.09985,41.0849647 L112.09985,40.6244615 L117.46418,40.6244615 C122.867243,40.6244615 127.247908,36.252169 127.247908,30.8585776 L127.247908,21.9160873 C130.470801,18.1933991 132.425092,13.3456744 132.425092,8.03897763 L86.0620631,8.03897763 C76.4558932,8.03897763 68.6690243,15.8120271 68.6690243,25.4002938 L68.6690243,84.4392572 C68.8596214,84.4557174 69.0521359,84.4652873 69.246568,84.4652873" id="Fill-7" fill="#FF2851"></path>
                <path d="M12.7233718,163.102357 C12.7233718,159.866585 10.8756922,157.534976 7.98222136,157.534976 C6.27413398,157.534976 4.46211942,158.544026 3.65984757,159.796916 L3.65984757,166.442632 C4.46211942,167.660688 6.27413398,168.704572 7.98222136,168.704572 C10.8756922,168.704572 12.7233718,166.372963 12.7233718,163.102357 M3.65984757,169.191488 L3.65984757,177.401308 C3.65984757,177.691084 3.42476505,177.925738 3.13445922,177.925738 L0.525541748,177.925738 C0.235235922,177.925738 0.000153398059,177.691084 0.000153398059,177.401308 L0.000153398059,155.240882 C0.000153398059,154.951488 0.235235922,154.716452 0.525541748,154.716452 L3.13445922,154.716452 C3.42476505,154.716452 3.65984757,154.951488 3.65984757,155.240882 L3.65984757,157.013226 C4.91502718,155.343088 6.86663398,154.299204 9.06367767,154.299204 C13.4209495,154.299204 16.5226583,157.569811 16.5226583,163.102357 C16.5226583,168.634903 13.4209495,171.940344 9.06367767,171.940344 C6.9364301,171.940344 5.01972136,171.000963 3.65984757,169.191488" id="Fill-9" fill="#000000"></path>
                <path d="M28.9585238,157.292016 C25.8215335,157.292016 24.3918636,159.692145 24.2181403,161.745844 L33.6996743,161.745844 C33.6298782,159.761814 32.2700044,157.292016 28.9585238,157.292016 M20.4188539,163.102472 C20.4188539,158.231397 23.9738539,154.299319 28.9585238,154.299319 C34.0129898,154.299319 37.2546743,158.161345 37.2546743,163.450816 L37.2546743,164.320528 L24.2530383,164.320528 C24.5314558,166.859994 26.4489316,168.948528 29.6208199,168.948528 C31.0842374,168.948528 32.7976937,168.421035 33.9918976,167.465577 C34.2227617,167.280687 34.5648393,167.344614 34.7339607,167.586923 L35.8016112,169.119255 C35.9546257,169.338979 35.9254801,169.646747 35.7203102,169.819005 C34.0616937,171.214678 31.7403976,171.940459 29.2377083,171.940459 C24.1832422,171.940459 20.4188539,168.426394 20.4188539,163.102472" id="Fill-11" fill="#000000"></path>
                <path d="M42.0276932,170.998475 L42.0276932,155.241073 C42.0276932,154.951297 42.2627757,154.716643 42.5530816,154.716643 L45.161999,154.716643 C45.4523049,154.716643 45.6873874,154.951297 45.6873874,155.241073 L45.6873874,157.187589 C46.8275184,155.733348 48.6004165,154.566587 50.5616107,154.364854 C50.8791447,154.332316 51.1602466,154.568118 51.1602466,154.886604 L51.1602466,157.952415 C50.8469311,157.883512 50.4638194,157.848677 50.0097612,157.848677 C48.4761641,157.848677 46.4198631,158.892561 45.6873874,160.075783 L45.6873874,170.998475 C45.6873874,171.288252 45.4523049,171.522905 45.161999,171.522905 L42.5530816,171.522905 C42.2627757,171.522905 42.0276932,171.288252 42.0276932,170.998475" id="Fill-13" fill="#000000"></path>
                <path d="M55.7007524,170.998475 L55.7007524,155.241073 C55.7007524,154.951297 55.935835,154.716643 56.2261408,154.716643 L58.8350583,154.716643 C59.1253641,154.716643 59.3604466,154.951297 59.3604466,155.241073 L59.3604466,170.998475 C59.3604466,171.288252 59.1253641,171.522905 58.8350583,171.522905 L56.2261408,171.522905 C55.935835,171.522905 55.7007524,171.288252 55.7007524,170.998475 M55.2478447,150.402153 C55.2478447,149.149262 56.2932524,148.140596 57.512767,148.140596 C58.7679466,148.140596 59.7788398,149.149262 59.7788398,150.402153 C59.7788398,151.655043 58.7679466,152.664092 57.512767,152.664092 C56.2932524,152.664092 55.2478447,151.655043 55.2478447,150.402153" id="Fill-15" fill="#000000"></path>
                <path d="M64.1172437,168.954844 L65.2182583,167.215037 C65.3866126,166.948994 65.747865,166.88813 65.9898505,167.089863 C67.2569184,168.145997 69.3182049,169.052074 71.2694282,169.052074 C73.4657049,169.052074 74.5812922,168.112693 74.5812922,166.791283 C74.5812922,163.484693 64.4021806,165.851136 64.4021806,159.414427 C64.4021806,156.665571 66.7725641,154.299128 71.0259087,154.299128 C73.6773942,154.299128 75.7298602,155.167691 77.2369961,156.376943 C77.4387146,156.538865 77.4820495,156.829025 77.3497437,157.051046 L76.3852534,158.669889 C76.219967,158.947799 75.8460592,159.013257 75.6013893,158.801571 C74.5341223,157.877502 72.8762728,157.222156 71.0611903,157.222156 C69.1433311,157.222156 67.9230495,158.091868 67.9230495,159.275089 C67.9230495,162.267786 78.1021612,160.04068 78.1021612,166.721614 C78.1021612,169.678328 75.6267,171.940268 71.0949379,171.940268 C68.4108553,171.940268 65.9407631,171.142521 64.2062146,169.632392 C64.0125495,169.463579 63.9799524,169.171889 64.1172437,168.954844" id="Fill-17" fill="#000000"></path>
                <path d="M81.3112102,163.538093 C81.0999044,158.236373 84.7469432,154.299319 90.0169335,154.299319 C93.0308218,154.299319 94.95405,155.476416 96.1647442,156.911517 C96.3415354,157.120906 96.3104723,157.435564 96.1095209,157.621603 L94.476982,159.133646 C94.2526374,159.341504 93.9105597,159.303225 93.7084578,159.073547 C92.8060937,158.048037 91.6341325,157.535091 90.1914238,157.535091 C87.1234626,157.535091 85.1020597,159.831865 85.1020597,163.102472 C85.1020597,166.373078 87.1234626,168.704304 90.1914238,168.704304 C91.633749,168.704304 92.8053267,168.164945 93.7076908,167.157809 C93.9101762,166.93196 94.2495694,166.89636 94.4723801,167.102687 L96.1091374,168.618558 C96.3100888,168.804597 96.3415354,169.119637 96.1647442,169.329027 C95.0644966,170.632063 93.3759675,171.723031 90.8153704,171.911366 C85.6577442,172.2911 81.5167636,168.696265 81.3112102,163.538093" id="Fill-19" fill="#000000"></path>
                <path d="M112.946377,163.102357 C112.946377,160.144495 111.204158,157.534976 108.066401,157.534976 C104.964309,157.534976 103.221323,160.144495 103.221323,163.102357 C103.221323,166.095054 104.964309,168.704572 108.066401,168.704572 C111.204158,168.704572 112.946377,166.095054 112.946377,163.102357 M99.4216534,163.102357 C99.4216534,158.300951 102.733134,154.299204 108.066401,154.299204 C113.469081,154.299204 116.746814,158.300951 116.746814,163.102357 C116.746814,167.938598 113.469081,171.940344 108.066401,171.940344 C102.733134,171.940344 99.4216534,167.938598 99.4216534,163.102357" id="Fill-21" fill="#000000"></path>
                <path d="M133.447874,163.102357 C133.447874,159.866585 131.600194,157.534976 128.706723,157.534976 C126.998636,157.534976 125.186621,158.544026 124.38435,159.796916 L124.38435,166.442632 C125.186621,167.660688 126.998636,168.704572 128.706723,168.704572 C131.600194,168.704572 133.447874,166.372963 133.447874,163.102357 M124.38435,169.191488 L124.38435,177.401308 C124.38435,177.691084 124.149267,177.925738 123.858961,177.925738 L121.250044,177.925738 C120.959738,177.925738 120.724655,177.691084 120.724655,177.401308 L120.724655,155.240882 C120.724655,154.951488 120.959738,154.716452 121.250044,154.716452 L123.858961,154.716452 C124.149267,154.716452 124.38435,154.951488 124.38435,155.240882 L124.38435,157.013226 C125.639529,155.343088 127.591136,154.299204 129.78818,154.299204 C134.145451,154.299204 137.24716,157.569811 137.24716,163.102357 C137.24716,168.634903 134.145451,171.940344 129.78818,171.940344 C127.660932,171.940344 125.744223,171.000963 124.38435,169.191488" id="Fill-23" fill="#000000"></path>
                <path d="M149.329251,157.292016 C146.192261,157.292016 144.762591,159.692145 144.588868,161.745844 L154.070402,161.745844 C154.000606,159.761814 152.640732,157.292016 149.329251,157.292016 M140.789582,163.102472 C140.789582,158.231397 144.344582,154.299319 149.329251,154.299319 C154.383717,154.299319 157.625402,158.161345 157.625402,163.450816 L157.625402,164.320528 L144.623766,164.320528 C144.902183,166.859994 146.819659,168.948528 149.991548,168.948528 C151.454965,168.948528 153.168421,168.421035 154.362625,167.465577 C154.593489,167.280687 154.935567,167.344614 155.104688,167.586923 L156.172339,169.119255 C156.325353,169.338979 156.296208,169.646747 156.091038,169.819005 C154.432421,171.214678 152.111125,171.940459 149.608436,171.940459 C144.55397,171.940459 140.789582,168.426394 140.789582,163.102472" id="Fill-25" fill="#000000"></path>
                <g id="Group-29" transform="translate(27.611650, 0.308533)">
                    <mask id="mask-2" fill="white">
                        <use xlink:href="#path-1"></use>
                    </mask>
                    <g id="Clip-28"></g>
                    <path d="M78.9033976,110.571533 C78.7584364,110.536698 78.6088733,110.512965 78.4531743,110.512965 C77.2087325,110.512965 75.9393636,109.998871 74.5959801,109.454918 C73.0462762,108.827516 71.289485,108.115898 69.2968442,108.115898 C67.3038199,108.115898 65.5474121,108.827516 63.9977083,109.454918 C62.6539413,109.998871 61.3845723,110.512965 60.1401306,110.512965 C58.8953053,110.512965 57.6263199,109.998871 56.2825529,109.454535 C54.732849,108.827516 52.9764413,108.115898 50.983417,108.115898 C48.9903927,108.115898 47.233985,108.827516 45.6842811,109.454918 C44.3405141,109.998871 43.0711451,110.512965 41.8267034,110.512965 C40.5822617,110.512965 39.3132762,109.998871 37.9695092,109.454918 C36.4194218,108.827516 34.6630141,108.115898 32.6699898,108.115898 C30.677349,108.115898 28.9209413,108.827516 27.3712374,109.454535 C26.0274704,109.998871 24.758485,110.512965 23.5132762,110.512965 C23.3805869,110.512965 23.251349,110.526363 23.1259461,110.55201 C19.3814995,107.800858 16.0558296,104.513025 13.2670529,100.80029 C13.6309898,100.726793 13.9941597,100.680092 14.3565626,100.680092 C15.6017714,100.680092 16.8707568,101.194187 18.2145238,101.738139 C19.7642277,102.365924 21.5206354,103.076776 23.5132762,103.076776 C25.506684,103.076776 27.2630917,102.365542 28.8127956,101.738139 C30.1565626,101.194187 31.4255481,100.680092 32.6699898,100.680092 C33.914815,100.680092 35.1838005,101.194187 36.527951,101.738139 C38.0776549,102.365924 39.8340626,103.076776 41.8267034,103.076776 C43.8197277,103.076776 45.5761354,102.365924 47.1258393,101.738139 C48.4696063,101.194187 49.7385917,100.680092 50.983417,100.680092 C52.2278587,100.680092 53.4972277,101.194187 54.8409947,101.738139 C56.3906985,102.365542 58.1474898,103.076776 60.1401306,103.076776 C62.1331549,103.076776 63.8895626,102.365924 65.4392665,101.738139 C66.7830335,101.194187 68.0520189,100.680092 69.2968442,100.680092 C70.5412859,100.680092 71.8106549,101.194187 73.1544218,101.738139 C74.7041257,102.365924 76.4605335,103.076776 78.4531743,103.076776 C80.445815,103.076776 82.2029898,102.365542 83.7526937,101.738139 C85.0960772,101.194187 86.3654461,100.680092 87.6098879,100.680092 C87.995684,100.680092 88.3799461,100.727942 88.7787811,100.814071 C85.9857859,104.529868 82.6543636,107.819615 78.9033976,110.571533 L78.9033976,110.571533 Z M27.6120723,113.475421 C28.0254801,113.320772 28.4254655,113.158849 28.8127956,113.001903 C30.1565626,112.45795 31.4255481,111.943855 32.6699898,111.943855 C33.914815,111.943855 35.1838005,112.45795 36.5275675,113.001903 C38.0776549,113.629688 39.8340626,114.340922 41.8267034,114.340922 C43.8197277,114.340922 45.5761354,113.629688 47.1258393,113.002286 C48.4696063,112.45795 49.7385917,111.943855 50.983417,111.943855 C52.2278587,111.943855 53.4972277,112.45795 54.8409947,113.001903 C56.3906985,113.629688 58.1471063,114.340922 60.1401306,114.340922 C62.1331549,114.340922 63.8895626,113.629688 65.4392665,113.002286 C66.7830335,112.45795 68.0520189,111.943855 69.2968442,111.943855 C70.5412859,111.943855 71.8106549,112.45795 73.1544218,113.001903 C73.5582422,113.165357 73.9770189,113.334169 74.409218,113.494944 C67.5132083,117.440036 59.5299898,119.697765 51.0282859,119.697765 C42.5116257,119.697765 34.5157519,117.432763 27.6120723,113.475421 L27.6120723,113.475421 Z M32.8122665,29.1818942 L32.8122665,85.5944963 C32.7643296,85.5937308 32.7179267,85.5883716 32.6699898,85.5883716 C30.677349,85.5883716 28.9209413,86.299606 27.3712374,86.9270082 C26.0274704,87.4713437 24.758485,87.9850555 23.5132762,87.9850555 C22.2688345,87.9850555 20.999849,87.4713437 19.656082,86.927391 C18.1063782,86.299606 16.3499704,85.5883716 14.3565626,85.5883716 C12.3639218,85.5883716 10.6075141,86.299606 9.05781019,86.927391 C8.13933932,87.2990856 7.25615,87.6527888 6.39098495,87.8418899 C4.75039272,83.0630684 3.85838301,77.9408791 3.85838301,72.6138942 C3.85838301,53.5805265 15.3877811,36.4645824 32.8122665,29.1818942 L32.8122665,29.1818942 Z M56.470849,3.90206624 L65.4093539,3.90206624 L65.4093539,40.4594383 L65.4093539,86.3780791 C64.9215481,86.5556963 64.449849,86.7444146 63.9977083,86.927391 C62.6539413,87.4713437 61.3845723,87.9850555 60.1401306,87.9850555 C58.8953053,87.9850555 57.6263199,87.4713437 56.2825529,86.9270082 C54.732849,86.299606 52.9764413,85.5883716 50.983417,85.5883716 C48.9903927,85.5883716 47.233985,86.299606 45.6842811,86.927391 C44.3405141,87.4713437 43.0711451,87.9850555 41.8267034,87.9850555 C40.5822617,87.9850555 39.3132762,87.4713437 37.9695092,86.927391 C37.5445966,86.7555157 37.1031937,86.5782813 36.647218,86.410234 L36.647218,23.6899243 C36.647218,12.7790985 45.5400869,3.90206624 56.470849,3.90206624 L56.470849,3.90206624 Z M72.7249073,42.3734168 C76.2806743,42.3734168 79.2542956,39.8404576 79.9319316,36.4875501 L81.2730141,36.4875501 C87.1581306,41.4007329 91.6657325,47.5656576 94.5450141,54.4310985 L91.0548248,54.4310985 L91.0548248,51.9429265 C91.0548248,50.8856447 90.1961791,50.028948 89.137349,50.028948 C88.0781354,50.028948 87.2198733,50.8856447 87.2198733,51.9429265 L87.2198733,54.4310985 L80.093383,54.4310985 L80.093383,51.9429265 C80.093383,50.8856447 79.2347374,50.028948 78.1759073,50.028948 C77.1166937,50.028948 76.2584316,50.8856447 76.2584316,51.9429265 L76.2584316,56.1245867 C76.226218,56.4021135 76.2519121,56.6865308 76.343951,56.9583157 L86.0900966,85.7227329 C84.7106646,85.9577695 83.453951,86.4642082 82.3111354,86.9270082 C80.9673684,87.4713437 79.6979995,87.9850555 78.4531743,87.9850555 C77.2087325,87.9850555 75.9393636,87.4713437 74.5959801,86.927391 C73.0462762,86.299606 71.289485,85.5883716 69.2968442,85.5883716 C69.2792034,85.5883716 69.2619461,85.5902856 69.2443053,85.5906684 L69.2443053,42.3734168 L72.7249073,42.3734168 Z M69.2443053,3.90206624 L97.2398345,3.90206624 C96.4985383,11.342849 91.4793539,17.5789738 84.6834364,20.106191 C84.556883,20.152892 84.4314801,20.2022727 84.3037762,20.246677 C84.1718539,20.2926125 84.0380141,20.3335716 83.9045578,20.3764447 C83.7231646,20.4350125 83.5417714,20.4931974 83.3588442,20.546406 C83.2422617,20.5804748 83.1252956,20.6110985 83.0083296,20.6428705 C82.8050772,20.6976103 82.6014413,20.7500533 82.3962714,20.7982856 C82.2877422,20.8239329 82.1784461,20.8484318 82.0687665,20.8721652 C81.8540092,20.9188662 81.6381015,20.9613566 81.4214267,21.0007845 C81.3159655,21.0199243 81.2101209,21.0394469 81.1035092,21.0566727 C80.8806985,21.0934211 80.6563539,21.1244275 80.4312422,21.15352 C80.328849,21.1665351 80.2268393,21.1814641 80.1236791,21.192948 C79.8851451,21.2197437 79.6450772,21.239649 79.4046257,21.2572576 C79.3148879,21.264148 79.2255335,21.2737178 79.1354121,21.279077 C78.8059898,21.2989824 78.4750335,21.3116146 78.1433102,21.3142942 C77.3540772,21.3215673 76.6798927,21.8035071 76.3918879,22.487563 C76.2960141,22.7153265 76.2430917,22.9656748 76.2430917,23.2282727 L76.2430917,34.5735716 L76.2430917,35.0340748 C76.2430917,36.9702555 74.6646257,38.5454598 72.7249073,38.5454598 L69.2443053,38.5454598 L69.2443053,3.90206624 Z M92.1581403,29.1482082 C92.1581403,31.0843888 90.5796743,32.6595931 88.6399558,32.6595931 L80.0780432,32.6595931 L80.0780432,25.0477006 C80.0999024,25.0457867 80.1213782,25.0423415 80.1428539,25.0404275 C80.4446646,25.0121006 80.7449413,24.9765006 81.044451,24.9366899 C81.1625675,24.9206125 81.279917,24.9026211 81.39765,24.8850125 C81.6116403,24.8532404 81.8244801,24.818406 82.0365529,24.7805092 C82.1550529,24.7594555 82.2735529,24.7387845 82.3912859,24.7158168 C82.6712374,24.6614598 82.9500383,24.6021265 83.2273053,24.5378168 C83.2641209,24.5290125 83.3017034,24.5221222 83.3385189,24.5133178 C83.6579704,24.4371415 83.9747374,24.3525437 84.2899704,24.2629695 C84.3613005,24.2426813 84.4322471,24.2208619 84.5035772,24.200191 C84.7777762,24.1194211 85.0508248,24.0336748 85.3215723,23.9433351 C85.3622228,23.9295544 85.4028733,23.9165394 85.4431403,23.9027587 C87.8576257,23.0808963 90.128684,21.867434 92.1581403,20.301034 L92.1581403,29.1482082 Z M86.8965869,76.1547544 L80.8331451,58.2590555 L95.9581937,58.2590555 C97.4258296,62.8426512 98.1981888,67.6758297 98.1981888,72.6138942 C98.1981888,73.8051544 98.1525529,74.9856963 98.065116,76.1547544 L86.8965869,76.1547544 Z M91.0613442,97.4864275 C90.0262908,97.1357867 88.8758053,96.8521351 87.6098879,96.8521351 C85.6172471,96.8521351 83.8608393,97.5633695 82.3111354,98.1907716 C80.9673684,98.7347243 79.6979995,99.2488189 78.4531743,99.2488189 C77.2087325,99.2488189 75.9393636,98.7347243 74.5959801,98.1907716 C73.0462762,97.5633695 71.289485,96.8521351 69.2968442,96.8521351 C67.3042034,96.8521351 65.5474121,97.5637523 63.9977083,98.1907716 C62.6539413,98.7347243 61.3845723,99.2488189 60.1401306,99.2488189 C58.8953053,99.2488189 57.6263199,98.7347243 56.2825529,98.1907716 C54.732849,97.5633695 52.9764413,96.8521351 50.983417,96.8521351 C48.9907762,96.8521351 47.233985,97.5637523 45.6842811,98.1907716 C44.3405141,98.7347243 43.0711451,99.2488189 41.8267034,99.2488189 C40.5822617,99.2488189 39.3132762,98.7347243 37.9691257,98.1907716 C36.4194218,97.5633695 34.6630141,96.8521351 32.6699898,96.8521351 C30.677349,96.8521351 28.9209413,97.5633695 27.3712374,98.1907716 C26.0274704,98.7347243 24.758485,99.2488189 23.5132762,99.2488189 C22.2688345,99.2488189 20.999849,98.7347243 19.656082,98.1907716 C18.1063782,97.5637523 16.3495869,96.8521351 14.3565626,96.8521351 C13.1347471,96.8521351 12.0226112,97.1143501 10.9798879,97.4623114 C9.77916456,95.5414426 8.71381505,93.5287028 7.79611117,91.4367243 C8.76021796,91.1737437 9.66104806,90.8135329 10.4993684,90.4739931 C11.8431354,89.9300404 13.1121209,89.4163286 14.3565626,89.4163286 C15.6017714,89.4163286 16.8707568,89.9300404 18.2145238,90.4743759 C19.7642277,91.1017781 21.5206354,91.8130125 23.5132762,91.8130125 C25.506684,91.8130125 27.2630917,91.1017781 28.8127956,90.4739931 C30.1565626,89.9300404 31.4255481,89.4163286 32.6699898,89.4163286 C33.914815,89.4163286 35.1838005,89.9300404 36.5275675,90.4739931 C38.0776549,91.1017781 39.8340626,91.8130125 41.8267034,91.8130125 C43.8197277,91.8130125 45.5761354,91.1017781 47.1258393,90.4743759 C48.4696063,89.9300404 49.7385917,89.4163286 50.983417,89.4163286 C52.2278587,89.4163286 53.4972277,89.9300404 54.8409947,90.4739931 C56.3906985,91.1017781 58.1471063,91.8130125 60.1401306,91.8130125 C62.1331549,91.8130125 63.8895626,91.1017781 65.4392665,90.4743759 C66.7830335,89.9300404 68.0520189,89.4163286 69.2968442,89.4163286 C70.5412859,89.4163286 71.8106549,89.9300404 73.1544218,90.4739931 C74.7041257,91.1017781 76.4605335,91.8130125 78.4531743,91.8130125 C80.4461985,91.8130125 82.2029898,91.1017781 83.7526937,90.4739931 C85.0960772,89.9300404 86.3654461,89.4163286 87.6098879,89.4163286 C88.8547131,89.4163286 90.124082,89.9300404 91.467849,90.4743759 C92.3291791,90.8231028 93.2568539,91.193649 94.2508733,91.4573953 C93.3312519,93.5509049 92.263985,95.5647931 91.0613442,97.4864275 L91.0613442,97.4864275 Z M95.658684,87.8598813 C94.7674413,87.6757566 93.8570238,87.3109523 92.9090238,86.927391 C92.0756888,86.5897652 91.1798442,86.2314684 90.2218733,85.9688705 L88.1935675,79.9827114 L97.6187277,79.9827114 C97.1907471,82.6913738 96.5303684,85.3242426 95.658684,87.8598813 L95.658684,87.8598813 Z M86.9610141,36.4875501 L88.6399558,36.4875501 C92.6942665,36.4875501 95.9930917,33.1951243 95.9930917,29.1482082 L95.9930917,16.5182469 C99.2251888,12.5360232 101.170276,7.47699527 101.170276,1.98808774 C101.170276,0.930806022 100.311631,0.0741092473 99.2528005,0.0741092473 L67.3268296,0.0741092473 L56.470849,0.0741092473 C43.4251112,0.0741092473 32.8122665,10.668363 32.8122665,23.6899243 L32.8122665,25.0584189 C13.145485,32.5646598 0.0234315534,51.4988834 0.0234315534,72.6138942 C0.0234315534,100.686982 22.9039024,123.525722 51.0282859,123.525722 C79.1522859,123.525722 102.03314,100.686982 102.03314,72.6138942 C102.03314,58.9484705 96.5886597,46.0180146 86.9610141,36.4875501 L86.9610141,36.4875501 Z" id="Fill-27" fill="#000000" mask="url(#mask-2)"></path>
                </g>
                <path d="M53.4520903,78.3333978 C52.4304592,78.3333978 51.6024932,79.1598538 51.6024932,80.1796215 C51.6024932,81.1993892 52.4304592,82.0258452 53.4520903,82.0258452 C54.4737214,82.0258452 55.3016874,81.1993892 55.3016874,80.1796215 C55.3016874,79.1598538 54.4737214,78.3333978 53.4520903,78.3333978" id="Fill-30" fill="#000000"></path>
                <path d="M49.7450345,71.1799032 C50.7666655,71.1799032 51.5946316,70.3534473 51.5946316,69.3336796 C51.5946316,68.3142946 50.7666655,67.4874559 49.7450345,67.4874559 C48.7234034,67.4874559 47.8954374,68.3142946 47.8954374,69.3336796 C47.8954374,70.3534473 48.7234034,71.1799032 49.7450345,71.1799032" id="Fill-32" fill="#000000"></path>
                <path d="M42.5863306,56.6974404 C43.6079617,56.6974404 44.4359277,55.8709845 44.4359277,54.8512168 C44.4359277,53.8318318 43.6079617,53.0049931 42.5863306,53.0049931 C41.5646995,53.0049931 40.7367335,53.8318318 40.7367335,54.8512168 C40.7367335,55.8709845 41.5646995,56.6974404 42.5863306,56.6974404" id="Fill-34" fill="#000000"></path>
                <path d="M53.4520903,56.737366 C52.4304592,56.737366 51.6024932,57.5638219 51.6024932,58.5835897 C51.6024932,59.6033574 52.4304592,60.4298133 53.4520903,60.4298133 C54.4737214,60.4298133 55.3016874,59.6033574 55.3016874,58.5835897 C55.3016874,57.5638219 54.4737214,56.737366 53.4520903,56.737366" id="Fill-36" fill="#000000"></path>
                <path d="M118.550391,67.6470434 C117.52876,67.6470434 116.700794,68.4734994 116.700794,69.4932671 C116.700794,70.5130348 117.52876,71.3394908 118.550391,71.3394908 C119.572022,71.3394908 120.399988,70.5130348 120.399988,69.4932671 C120.399988,68.4734994 119.572022,67.6470434 118.550391,67.6470434" id="Fill-38" fill="#000000"></path>
                <path d="M53.3882383,45.7239892 C54.4098694,45.7239892 55.2378354,44.8975333 55.2378354,43.8777656 C55.2378354,42.8583806 54.4098694,42.0315419 53.3882383,42.0315419 C52.3666073,42.0315419 51.5386413,42.8583806 51.5386413,43.8777656 C51.5386413,44.8975333 52.3666073,45.7239892 53.3882383,45.7239892" id="Fill-40" fill="#000000"></path>
                <path d="M38.8472529,67.6071178 C39.868884,67.6071178 40.69685,66.7806619 40.69685,65.7608942 C40.69685,64.7415092 39.868884,63.9146705 38.8472529,63.9146705 C37.8256218,63.9146705 36.9976558,64.7415092 36.9976558,65.7608942 C36.9976558,66.7806619 37.8256218,67.6071178 38.8472529,67.6071178" id="Fill-42" fill="#000000"></path>
                <path d="M38.8792748,78.3333978 C37.8576437,78.3333978 37.0296777,79.1598538 37.0296777,80.1796215 C37.0296777,81.1993892 37.8576437,82.0258452 38.8792748,82.0258452 C39.9009058,82.0258452 40.7288718,81.1993892 40.7288718,80.1796215 C40.7288718,79.1598538 39.9009058,78.3333978 38.8792748,78.3333978" id="Fill-44" fill="#000000"></path>
            </g>
        </g>
    </g>
</svg>